<?xml version="1.0" encoding="UTF-8"?><svg id="Calque_1" xmlns="http://www.w3.org/2000/svg" viewBox="0 0 1957.51 1374.87"><path d="M894.19,196.51s-4.12-29.28-8.28-43.1c-4.6-15.26-10.84-29.8-18.53-43.41-4.55-8.08-9.61-15.84-15.14-23.22-12.12-16.18-26.46-30.6-42.57-42.8-10.26-7.77-21.22-14.63-32.8-20.48-16.75-8.48-34.78-14.83-53.7-18.68-13.98-2.85-28.44-4.35-43.25-4.35s-29.27,1.5-43.25,4.35c-18.92,3.85-36.95,10.2-53.7,18.68-11.58,5.85-22.54,12.71-32.8,20.48-16.12,12.2-30.45,26.63-42.57,42.8-5.53,7.38-10.59,15.14-15.14,23.22-7.69,13.61-13.93,28.14-18.53,43.41-4.16,13.82-4.97,43.1-4.97,43.1l-3.26,129.67c0,23.93,19.41,43.33,43.35,43.33h0c23.87,0,43.22-19.36,43.21-43.23,0,0,3.23-129.78,3.23-129.78,2.28-15.42,3.97-29.95,11.21-43.09,9.49-17.26,22.8-32.11,38.81-43.41,9.52-6.73,19.99-12.2,31.18-16.16,10.54-3.76,21.72-6.18,33.31-7.06,3.28-.25,6.59-.37,9.94-.37s6.66,.12,9.94,.37c11.59,.88,22.77,3.3,33.31,7.06,11.19,3.96,21.66,9.43,31.18,16.16,16.01,11.3,29.32,26.15,38.81,43.41,7.24,13.14,11.21,43.1,11.21,43.11l3.18,129.61c-.02,23.96,19.39,43.39,43.35,43.39h0c23.95,0,43.36-19.42,43.35-43.36l-.05-129.64Z"/><rect x="636.66" y="153.41" width="86.5" height="216.11" rx="43.25" ry="43.25"/></svg>